<?xml version="1.0" standalone="no"?>
<!DOCTYPE svg PUBLIC "-//W3C//DTD SVG 20010904//EN"
 "http://www.w3.org/TR/2001/REC-SVG-20010904/DTD/svg10.dtd">
<svg version="1.0" xmlns="http://www.w3.org/2000/svg"
 width="512.000000pt" height="512.000000pt" viewBox="0 0 512.000000 512.000000"
 preserveAspectRatio="xMidYMid meet">

<g transform="translate(0.000000,512.000000) scale(0.100000,-0.100000)"
fill="#000000" stroke="none">
<path d="M2315 5109 c-800 -83 -1501 -518 -1927 -1196 -487 -774 -516 -1777
-75 -2578 200 -364 487 -676 841 -913 238 -159 600 -311 876 -366 214 -43 295
-51 530 -51 236 0 333 10 532 51 880 184 1615 842 1898 1702 92 278 125 491
125 802 0 301 -32 513 -116 775 -124 390 -330 728 -622 1024 -399 404 -893
653 -1462 737 -123 18 -478 26 -600 13z m-182 -1656 c40 -126 151 -474 247
-775 96 -300 177 -544 180 -541 3 2 115 350 251 771 l245 767 357 3 357 2 0
-1120 0 -1120 -270 0 -270 0 0 293 c0 170 10 498 25 786 14 272 24 496 22 497
-1 1 -87 -248 -191 -554 -104 -307 -225 -662 -269 -789 l-79 -233 -178 0 -178
0 -69 203 c-39 111 -159 464 -268 785 -109 320 -200 581 -202 578 -2 -2 8
-234 22 -515 14 -282 25 -633 25 -782 l0 -269 -270 0 -270 0 0 1120 0 1120
355 0 354 0 74 -227z"/>
</g>
</svg>
